<?xml version="1.0" encoding="UTF-8" standalone="no"?>
<!-- Created with Inkscape (http://www.inkscape.org/) -->

<svg
   xmlns:dc="http://purl.org/dc/elements/1.1/"
   xmlns:cc="http://creativecommons.org/ns#"
   xmlns:rdf="http://www.w3.org/1999/02/22-rdf-syntax-ns#"
   xmlns:svg="http://www.w3.org/2000/svg"
   xmlns="http://www.w3.org/2000/svg"
   xmlns:sodipodi="http://sodipodi.sourceforge.net/DTD/sodipodi-0.dtd"
   xmlns:inkscape="http://www.inkscape.org/namespaces/inkscape"
   width="16"
   height="16"
   viewBox="0 0 4.2333332 4.2333335"
   version="1.1"
   id="svg8"
   inkscape:version="0.92.2 (unknown)"
   sodipodi:docname="com.github.tom95.indicator-toggl.time-tracker-active-symbolic.svg">
  <defs
     id="defs2" />
  <sodipodi:namedview
     id="base"
     pagecolor="#ffffff"
     bordercolor="#666666"
     borderopacity="1.0"
     inkscape:pageopacity="0.0"
     inkscape:pageshadow="2"
     inkscape:zoom="31.476092"
     inkscape:cx="12.264266"
     inkscape:cy="4.5142616"
     inkscape:document-units="mm"
     inkscape:current-layer="layer1"
     showgrid="false"
     inkscape:snap-global="false"
     units="px"
     inkscape:window-width="1920"
     inkscape:window-height="1017"
     inkscape:window-x="1920"
     inkscape:window-y="30"
     inkscape:window-maximized="1" />
  <metadata
     id="metadata5">
    <rdf:RDF>
      <cc:Work
         rdf:about="">
        <dc:format>image/svg+xml</dc:format>
        <dc:type
           rdf:resource="http://purl.org/dc/dcmitype/StillImage" />
        <dc:title />
      </cc:Work>
    </rdf:RDF>
  </metadata>
  <g
     inkscape:label="Layer 1"
     inkscape:groupmode="layer"
     id="layer1"
     transform="translate(0,-292.76665)">
    <path
       style="color:#000000;font-style:normal;font-variant:normal;font-weight:normal;font-stretch:normal;font-size:medium;line-height:normal;font-family:sans-serif;font-variant-ligatures:normal;font-variant-position:normal;font-variant-caps:normal;font-variant-numeric:normal;font-variant-alternates:normal;font-feature-settings:normal;text-indent:0;text-align:start;text-decoration:none;text-decoration-line:none;text-decoration-style:solid;text-decoration-color:#000000;letter-spacing:normal;word-spacing:normal;text-transform:none;writing-mode:lr-tb;direction:ltr;text-orientation:mixed;dominant-baseline:auto;baseline-shift:baseline;text-anchor:start;white-space:normal;shape-padding:0;clip-rule:nonzero;display:inline;overflow:visible;visibility:visible;opacity:1;isolation:auto;mix-blend-mode:normal;color-interpolation:sRGB;color-interpolation-filters:linearRGB;solid-color:#000000;solid-opacity:1;vector-effect:none;fill:#666666;fill-opacity:1;fill-rule:nonzero;stroke:none;stroke-width:0.36032838;stroke-linecap:butt;stroke-linejoin:round;stroke-miterlimit:4;stroke-dasharray:none;stroke-dashoffset:0;stroke-opacity:1;color-rendering:auto;image-rendering:auto;shape-rendering:auto;text-rendering:auto;enable-background:accumulate"
       d="m 2.1377839,293.4773 c -0.8942307,0 -1.62394246,0.72936 -1.62394084,1.62359 2.2e-7,0.049 0.0132369,0.0938 0.0256875,0.13899 A 0.90378743,0.90378743 0 0 1 0.8780422,295.1206 c -0.001334,-0.006 -0.003872,-0.0127 -0.003872,-0.0197 -1.3e-6,-0.69949 0.564118,-1.26325 1.2636124,-1.26325 0.699494,0 1.262206,0.56376 1.2622047,1.26325 -1.9e-6,0.69949 -0.5627131,1.26221 -1.2622047,1.26221 -0.099687,0 -0.1911555,-0.0256 -0.2822103,-0.052 a 0.90378743,0.90378743 0 0 1 -0.1984619,0.32545 c 0.1524301,0.051 0.3116124,0.0873 0.4806724,0.0873 0.8942272,0 1.6225305,-0.72865 1.6225331,-1.62288 1.6e-6,-0.89423 -0.7283031,-1.62359 -1.6225331,-1.62359 z"
       id="path831"
       inkscape:connector-curvature="0" />
    <rect
       style="fill:#666666;fill-opacity:1;stroke:none;stroke-width:0.34708187;stroke-linejoin:round;stroke-miterlimit:4;stroke-dasharray:none;stroke-opacity:1"
       id="rect833"
       width="1.1187177"
       height="0.41469702"
       x="-183.86981"
       y="229.06473"
       ry="0"
       transform="rotate(-38.806575)" />
    <rect
       transform="matrix(-0.77926605,-0.62669324,-0.62669324,0.77926605,0,0)"
       ry="0"
       y="226.41173"
       x="-187.1687"
       height="0.41469702"
       width="1.1187177"
       id="rect835"
       style="fill:#666666;fill-opacity:1;stroke:none;stroke-width:0.34708187;stroke-linejoin:round;stroke-miterlimit:4;stroke-dasharray:none;stroke-opacity:1" />
    <path
       style="fill:#666666;fill-opacity:1;stroke:none;stroke-width:0.36032832;stroke-linejoin:round;stroke-miterlimit:4;stroke-dasharray:none;stroke-opacity:1"
       d="m 1.9540468,294.17496 v 1.11723 8.9e-4 h 0.00211 l 0.7846996,0.50495 0.1671455,-0.25934 -0.6453594,-0.41495 v -0.94902 z"
       id="rect837"
       inkscape:connector-curvature="0" />
    <path
       inkscape:connector-curvature="0"
       class="error"
       d="m 1.7234019,296.01526 a 0.72065664,0.72065664 0 0 1 -1.4413129,0 0.72065664,0.72065664 0 1 1 1.4413129,0 z"
       overflow="visible"
       style="color:#bebebe;overflow:visible;isolation:auto;mix-blend-mode:normal;fill:#d33636;stroke-width:0.18016416;marker:none"
       id="path5987" />
  </g>
</svg>
